<?xml version="1.0" standalone="no"?>
<!DOCTYPE svg PUBLIC "-//W3C//DTD SVG 20010904//EN"
 "http://www.w3.org/TR/2001/REC-SVG-20010904/DTD/svg10.dtd">
<svg version="1.0" xmlns="http://www.w3.org/2000/svg"
 width="400.000000pt" height="300.000000pt" viewBox="0 0 400.000000 300.000000"
 preserveAspectRatio="xMidYMid meet">

<g transform="translate(0.000000,300.000000) scale(0.100000,-0.100000)"
fill="#000000" stroke="none">
<path d="M1370 2820 c6 -11 24 -30 40 -41 l29 -22 -22 -17 c-21 -17 -22 -17
-44 7 -24 25 -91 58 -101 49 -10 -10 40 -55 75 -68 31 -11 32 -13 16 -30 -20
-22 -37 -23 -54 -1 -17 20 -87 52 -113 53 -17 0 -16 -4 10 -31 16 -17 46 -39
66 -49 l38 -17 -29 -27 -29 -28 -39 31 c-37 29 -136 61 -149 48 -18 -18 77
-81 138 -92 l38 -7 -36 -44 -36 -43 -31 23 c-48 36 -87 53 -139 60 -55 8 -59
0 -20 -36 35 -33 84 -58 132 -66 l39 -7 -36 -61 -36 -62 -64 35 c-51 28 -79
37 -133 41 -38 2 -76 2 -86 -2 -16 -6 -16 -8 0 -25 32 -35 123 -73 194 -79
l68 -7 -30 -68 -31 -68 -35 26 c-60 44 -132 65 -225 65 -47 0 -85 -4 -85 -10
0 -15 88 -71 146 -91 31 -11 80 -19 119 -19 36 0 65 -3 65 -6 0 -3 -11 -43
-24 -88 -31 -100 -53 -220 -62 -326 l-7 -80 -69 0 c-64 0 -72 -2 -100 -30 -27
-28 -30 -36 -25 -77 3 -25 1 -58 -4 -72 -14 -41 -88 -1127 -79 -1165 11 -51
45 -92 93 -115 39 -19 61 -21 220 -21 187 0 215 5 260 48 41 39 57 74 57 129
0 121 -71 1082 -83 1119 -9 27 -10 48 -4 62 13 28 1 69 -28 98 -21 20 -34 24
-90 24 l-65 0 0 43 c1 92 61 427 77 427 3 0 35 -15 72 -32 58 -29 77 -33 163
-36 64 -3 98 0 98 7 0 16 -87 71 -146 92 -29 11 -80 19 -113 19 l-60 0 19 53
c33 94 27 89 68 62 21 -13 57 -31 81 -40 49 -17 181 -21 181 -5 0 16 -90 69
-144 85 -27 8 -69 15 -93 15 -24 0 -43 3 -43 6 0 4 14 31 31 60 l30 54 27 -25
c39 -36 90 -58 147 -63 l50 -5 -25 28 c-34 36 -97 72 -142 80 -21 4 -38 9 -38
11 0 6 52 84 56 84 2 0 24 -14 50 -32 32 -21 62 -33 98 -36 l51 -5 -25 28
c-28 31 -94 64 -127 65 -29 0 -29 11 1 39 l25 23 39 -31 c22 -18 56 -34 78
-38 l39 -6 -34 36 c-19 20 -47 39 -62 42 -38 8 -43 19 -20 39 18 16 20 16 47
-9 29 -27 70 -42 82 -30 8 8 -57 65 -75 65 -20 0 -16 18 7 30 15 8 21 6 30
-10 6 -11 24 -27 40 -35 45 -23 40 6 -7 42 -20 15 -48 40 -62 54 -24 25 -62
49 -76 49 -3 0 -1 -9 5 -20z m-490 -1435 l0 -205 -85 0 -86 0 5 48 c3 26 8 83
11 127 4 53 13 91 26 114 18 31 19 35 5 43 -19 11 -21 49 -4 66 7 7 38 12 70
12 l58 0 0 -205z m214 189 c20 -19 20 -38 1 -57 -13 -14 -12 -20 4 -59 14 -29
22 -80 27 -160 l7 -118 -87 0 -86 0 0 -280 0 -280 -35 0 -35 0 0 280 0 280 35
0 35 0 0 205 0 205 59 0 c41 0 65 -5 75 -16z"/>
<path d="M1514 2811 c-18 -11 -35 -24 -38 -30 -16 -26 84 1 109 29 18 20 17
20 -11 20 -16 0 -43 -9 -60 -19z"/>
<path d="M2640 1560 l0 -320 25 0 25 0 0 320 0 320 -25 0 -25 0 0 -320z"/>
<path d="M2770 1560 l0 -320 25 0 25 0 0 320 0 320 -25 0 -25 0 0 -320z"/>
<path d="M1760 1540 l0 -302 108 4 c132 4 175 22 210 89 42 79 19 168 -55 211
-34 20 -34 22 -14 32 37 20 54 55 54 110 0 112 -46 148 -200 154 l-103 4 0
-302z m202 224 c37 -19 51 -49 45 -97 -8 -62 -34 -81 -117 -85 l-70 -4 0 107
0 107 57 -7 c32 -4 70 -13 85 -21z m17 -245 c38 -13 61 -54 61 -106 0 -75 -54
-113 -160 -113 l-60 0 0 115 0 115 64 0 c34 0 77 -5 95 -11z"/>
<path d="M2285 1655 c-127 -45 -173 -230 -83 -340 84 -102 253 -100 338 3 l31
37 -27 3 c-18 2 -35 -5 -53 -22 -74 -71 -203 -59 -258 23 -13 19 -23 45 -23
57 l0 24 185 0 185 0 0 33 c0 38 -39 125 -66 149 -53 46 -151 61 -229 33z
m170 -53 c16 -10 40 -38 53 -62 l22 -45 -156 -3 c-86 -1 -159 -1 -161 2 -8 8
25 72 49 94 49 44 129 50 193 14z"/>
<path d="M3035 1655 c-53 -19 -111 -82 -125 -136 -13 -49 -6 -128 15 -168 64
-123 246 -150 346 -50 21 21 39 44 39 49 0 19 -55 11 -68 -11 -17 -27 -71 -49
-122 -49 -80 0 -146 47 -157 114 l-6 36 188 0 188 0 -7 48 c-19 140 -152 216
-291 167z m165 -50 c30 -16 70 -72 70 -99 0 -14 -18 -16 -155 -16 -102 0 -155
4 -155 10 0 19 27 64 53 88 46 43 123 50 187 17z"/>
<path d="M1780 955 c0 -37 4 -65 10 -65 6 0 10 11 10 25 0 14 4 25 10 25 5 0
17 -11 26 -25 9 -14 21 -25 26 -25 6 0 -1 15 -15 33 l-25 33 24 29 c33 42 18
47 -17 5 l-28 -35 -1 33 c0 17 -4 32 -10 32 -6 0 -10 -28 -10 -65z"/>
<path d="M1891 920 c1 -36 4 -56 6 -44 3 16 10 20 27 17 28 -6 56 20 56 52 0
28 -27 46 -64 43 -25 -2 -26 -4 -25 -68z m69 40 c20 -38 -19 -77 -48 -48 -23
23 -7 68 25 68 7 0 17 -9 23 -20z"/>
<path d="M2023 978 c-35 -46 -8 -90 52 -85 34 2 35 3 35 47 l0 45 -39 3 c-22
1 -42 -3 -48 -10z m67 -18 c22 -40 -26 -80 -58 -48 -25 25 -6 68 30 68 9 0 22
-9 28 -20z"/>
<path d="M2148 979 c-25 -14 -24 -65 1 -79 28 -14 57 -12 71 5 15 18 7 19 -20
3 -26 -17 -55 0 -55 32 0 32 29 49 55 32 27 -16 35 -15 20 3 -14 17 -47 19
-72 4z"/>
<path d="M2263 978 c-28 -37 -12 -88 27 -88 24 0 50 26 50 50 0 39 -55 66 -77
38z m55 -36 c2 -22 -2 -34 -12 -38 -34 -13 -61 37 -34 64 21 21 43 9 46 -26z"/>
<path d="M2362 983 c12 -3 18 -18 21 -51 l3 -47 2 47 c2 35 6 48 20 51 9 3 -1
5 -23 5 -22 0 -32 -2 -23 -5z"/>
<path d="M2436 972 c-35 -39 -4 -82 57 -80 l37 1 0 47 0 47 -39 1 c-26 1 -43
-4 -55 -16z m62 -4 c17 -17 15 -43 -4 -59 -31 -26 -70 25 -44 56 15 18 32 19
48 3z"/>
<path d="M2730 940 c0 -27 4 -50 8 -50 5 0 21 17 35 37 l27 38 0 -38 c0 -20 5
-37 10 -37 6 0 10 23 10 50 0 28 -3 50 -7 50 -5 0 -20 -14 -35 -32 l-27 -33
-1 33 c0 17 -4 32 -10 32 -5 0 -10 -22 -10 -50z"/>
<path d="M2845 980 c-4 -6 -4 -14 -1 -17 3 -4 6 -1 6 5 0 7 7 12 15 12 21 0
19 -30 -2 -31 -11 0 -13 -3 -5 -6 14 -5 17 -43 3 -43 -5 0 -11 6 -14 13 -2 6
-7 10 -10 7 -3 -3 -2 -12 3 -20 7 -12 13 -12 27 -4 24 15 25 87 1 92 -9 2 -19
-2 -23 -8z"/>
<path d="M2910 940 c0 -27 5 -50 10 -50 6 0 10 11 10 25 0 20 5 25 25 25 20 0
25 -5 25 -25 0 -14 5 -25 10 -25 6 0 10 19 10 43 l1 42 15 -35 c8 -19 12 -45
9 -57 -8 -32 8 -29 22 5 6 15 18 44 27 65 9 20 12 37 7 37 -4 0 -15 -17 -23
-37 l-15 -38 -16 38 c-17 39 -47 51 -47 17 0 -15 -7 -20 -25 -20 -18 0 -25 5
-25 20 0 11 -4 20 -10 20 -5 0 -10 -22 -10 -50z"/>
<path d="M3112 983 c12 -3 18 -18 21 -51 l3 -47 2 47 c2 35 6 48 20 51 9 3 -1
5 -23 5 -22 0 -32 -2 -23 -5z"/>
<path d="M3180 923 c0 -36 4 -63 10 -63 6 0 10 8 10 19 0 14 6 17 24 14 18 -4
29 2 41 21 16 24 16 28 1 51 -13 20 -24 24 -51 22 l-35 -2 0 -62z m74 35 c13
-21 -2 -51 -27 -56 -23 -5 -40 33 -27 59 13 23 38 22 54 -3z"/>
<path d="M3300 940 c0 -27 4 -50 9 -50 5 0 22 17 37 38 l29 37 6 -40 c6 -39 6
-39 8 13 0 28 -3 52 -7 52 -5 0 -21 -17 -35 -37 l-27 -38 0 38 c0 20 -4 37
-10 37 -5 0 -10 -22 -10 -50z"/>
</g>
</svg>
